<svg version="1.1" xmlns="http://www.w3.org/2000/svg" viewbox="0 0 16 16" width="16" height="16">
<path d="M0 0 C5.28 0 10.56 0 16 0 C16 5.28 16 10.56 16 16 C10.72 16 5.44 16 0 16 C0 10.72 0 5.44 0 0 Z " fill="#FDD21E" transform="translate(0,0)"/>
<path d="M0 0 C5.28 0 10.56 0 16 0 C16 5.28 16 10.56 16 16 C10.72 16 5.44 16 0 16 C0 10.72 0 5.44 0 0 Z M2.625 2.6875 C0.84807743 4.88575314 0.84807743 4.88575314 0.5 7.5 C1.17402776 10.87013879 2.2087875 12.01677007 5 14 C8.70758991 14.61793165 10.2935202 14.50197249 13.375 12.3125 C15.15192257 10.11424686 15.15192257 10.11424686 15.5 7.5 C14.82597224 4.12986121 13.7912125 2.98322993 11 1 C7.29241009 0.38206835 5.7064798 0.49802751 2.625 2.6875 Z " fill="#FEF9F1" transform="translate(0,0)"/>
<path d="M0 0 C0.37125 0.515625 0.7425 1.03125 1.125 1.5625 C3.03173152 3.36319983 3.03173152 3.36319983 6.1875 2.6875 C7.115625 2.460625 8.04375 2.23375 9 2 C8.67 4.31 8.34 6.62 8 9 C5.125 9.125 5.125 9.125 2 9 C-0 7 -0 7 -0.125 3.375 C-0.08375 2.26125 -0.0425 1.1475 0 0 Z " fill="#F8AF13" transform="translate(3,5)"/>
<path d="M0 0 C0 1.65 0 3.3 0 5 C-0.66 4.34 -1.32 3.68 -2 3 C-4.60280568 3.32041397 -4.60280568 3.32041397 -7 4 C-7.33 3.01 -7.66 2.02 -8 1 C-1.125 0 -1.125 0 0 0 Z " fill="#F1DC8C" transform="translate(13,5)"/>
<path d="M0 0 C1.423125 0.2784375 1.423125 0.2784375 2.875 0.5625 C5.89868793 1.28686632 5.89868793 1.28686632 8 0 C7.67 1.32 7.34 2.64 7 4 C5.02 4 3.04 4 1 4 C0.67 2.68 0.34 1.36 0 0 Z " fill="#472C18" transform="translate(4,7)"/>
</svg>
